<svg xmlns="http://www.w3.org/2000/svg" viewBox="0 0 408.97 109.92"><defs><style>.cls-1{fill:#6f54cc;}.cls-2{fill:#ec1c24;}.cls-3{font-size:22.83px;font-family:OpenSans-Italic, Open Sans;font-style:italic;letter-spacing:0.24em;}.cls-3,.cls-4{fill:#fff;}</style></defs><g id="Layer_2" data-name="Layer 2"><g id="Logo"><path class="cls-1" d="M40.18,16.12q0,7.93-5,12.14T21.1,32.47H16.62V50H6.19V.77H21.91q8.94,0,13.61,3.86T40.18,16.12Zm-23.56,7.8h3.43q4.82,0,7.21-1.9a6.64,6.64,0,0,0,2.38-5.53c0-2.45-.66-4.25-2-5.42s-3.42-1.75-6.27-1.75H16.62Z"/><path class="cls-1" d="M49.46,50V.77H59.9V41.35H79.85V50Z"/><path class="cls-1" d="M118.51,50l-3.57-11.71H97L93.44,50H82.2L99.57.57h12.75L129.75,50Zm-6.06-20.46q-4.94-15.92-5.56-18t-.9-3.3q-1.11,4.31-6.36,21.3Z"/><path class="cls-1" d="M151.25,21,161.51.77h11.24L156.43,30.82V50H146.07V31.16L129.75.77h11.31Z"/><path class="cls-2" d="M219.26,50h-10.4V28.74H189.38V50H178.94V.77h10.44V20.05h19.48V.77h10.4Z"/><path class="cls-2" d="M276.32,25.3q0,12.23-6.05,18.78T252.9,50.64q-11.29,0-17.36-6.56t-6.06-18.84q0-12.28,6.08-18.76T253,0q11.34,0,17.35,6.53T276.32,25.3Zm-35.9,0q0,8.25,3.13,12.42t9.35,4.17q12.5,0,12.49-16.59T253,8.68q-6.22,0-9.39,4.19T240.42,25.3Z"/><path class="cls-2" d="M326.56.77V32.6a18.3,18.3,0,0,1-2.44,9.56,15.74,15.74,0,0,1-7.05,6.29,25.15,25.15,0,0,1-10.9,2.19q-9.5,0-14.74-4.86t-5.25-13.31V.77h10.4V30.89q0,5.69,2.29,8.34c1.52,1.78,4.05,2.66,7.57,2.66s5.88-.89,7.42-2.67,2.3-4.58,2.3-8.4V.77Z"/><path class="cls-2" d="M367.65,36.31a12.72,12.72,0,0,1-4.8,10.5q-4.78,3.82-13.34,3.83a31.39,31.39,0,0,1-13.93-3V38A58,58,0,0,0,344,41.12a25.2,25.2,0,0,0,6.31.91,8.9,8.9,0,0,0,5.26-1.32,4.46,4.46,0,0,0,1.84-3.9,4.29,4.29,0,0,0-.81-2.57,9,9,0,0,0-2.37-2.17,58.76,58.76,0,0,0-6.38-3.33,30.16,30.16,0,0,1-6.76-4.08,15.32,15.32,0,0,1-3.6-4.54,12.93,12.93,0,0,1-1.35-6.06A12.71,12.71,0,0,1,340.58,3.8Q345,.07,352.81.07a28.68,28.68,0,0,1,7.32.91,49.29,49.29,0,0,1,7.28,2.55l-3.36,8.11a49.75,49.75,0,0,0-6.51-2.25,20.84,20.84,0,0,0-5.07-.64,6.7,6.7,0,0,0-4.54,1.38,4.53,4.53,0,0,0-1.58,3.6,4.39,4.39,0,0,0,.64,2.4,6.88,6.88,0,0,0,2,2,63.3,63.3,0,0,0,6.61,3.45q6.9,3.3,9.46,6.61A12.94,12.94,0,0,1,367.65,36.31Z"/><path class="cls-2" d="M404.9,50H376.56V.77H404.9V9.32H387v10.8h16.66v8.55H387V41.35H404.9Z"/><rect class="cls-1" y="65.54" width="127.23" height="10.35"/><rect class="cls-1" x="281.74" y="65.54" width="127.23" height="10.35"/><text class="cls-3" transform="translate(29.64 103.8)">Design-Develop-Learn</text><path class="cls-4" d="M164.62,57.43v26.2h-4.3V65.69l-8,17.94h-3l-8-17.94V83.63H137V57.43h4.63L150.86,78,160,57.43Z"/><path class="cls-4" d="M179.85,60.9v7.69h9.05V72.1h-9.05v8H190v3.5H175.55V57.39H190V60.9Z"/><path class="cls-4" d="M216.47,59a11.57,11.57,0,0,1,4.87,4.6,13.87,13.87,0,0,1,1.71,7,13.55,13.55,0,0,1-1.71,6.94,11.43,11.43,0,0,1-4.87,4.51,16.31,16.31,0,0,1-7.33,1.56h-8.56V57.43h8.56A16.05,16.05,0,0,1,216.47,59Zm-.28,18.61a9.6,9.6,0,0,0,2.45-7,9.91,9.91,0,0,0-2.45-7.12q-2.44-2.56-7.05-2.56h-4.26V80.13h4.26Q213.75,80.13,216.19,77.64Z"/><path class="cls-4" d="M236.89,57.43v26.2h-4.3V57.43Z"/><path class="cls-4" d="M263.61,78.28h-11l-1.88,5.35h-4.49l9.39-26.24h5L270,83.63H265.5Zm-1.2-3.51L258.15,62.6l-4.3,12.17Z"/></g></g></svg>